<svg width="50" height="50" fill="none" xmlns="http://www.w3.org/2000/svg"><path fill-rule="evenodd" clip-rule="evenodd" d="M12.112 41.88a1.558 1.558 0 01-1.537 1.65 1.688 1.688 0 01-1.705-1.59 1.558 1.558 0 011.538-1.649 1.688 1.688 0 011.704 1.59zm5.257-5.828L12.528 40.4a3.432 3.432 0 00-.9-.84l4-5.131.561.85a.845.845 0 00.292.272l.888.5zm7.6 2.42l-.57.611-7.618-4.293-4.815-7.3.57-.612L24.97 38.472zm1.282-8.753l-2.28 2.445-3.37-.834 2.28-2.444 1.954.483 1.416.35zm-4.88-4.551l.447 1.387.619 1.917-2.28 2.445-.448-1.388-.618-1.917 2.28-2.444zm7.74 1.554l-2.201 2.36-3.723-.864-1.023-2.78 6.947 1.284zm2.248-2.412l-1.593 1.709-7.887-1.397 1.683-1.805 7.797 1.494zm-1.917-7.798l2.305 7.256-7.552-1.63 5.247-5.626zm8.246-8.843l.449 1.387.618 1.916-5.368 5.756c-.007.008-.012.018-.019.027-.008.012-.018.023-.025.036-.006.01-.008.023-.012.034l-.007.02-.007.019-.002.036c-.001.014-.004.026-.003.041 0 .012.004.024.006.035l.003.02.005.02v.003l1.248 3.773-2.302 2.469-2.345-7.268 7.761-8.324zm-.468 10.357l-2.195 2.354-1.097-3.223 3.292.869zm5.35-5.806l-5.022 5.384-1.955-.484-1.415-.35 5.02-5.384 1.956.484 1.415.35zm-.523-4.334l.645 3.754-3.369-.833-1.066-3.302 3.79.38z" fill="url(#paint0_radial_0_15626)"/><defs><radialGradient id="paint0_radial_0_15626" cx="0" cy="0" r="1" gradientUnits="userSpaceOnUse" gradientTransform="rotate(134.524 16.922 13.003) scale(43.7075 15.5562)"><stop stop-color="#7AA6DD"/><stop offset="1" stop-color="#56759E"/></radialGradient></defs></svg>