<svg xmlns="http://www.w3.org/2000/svg" width="120" height="120.001"><defs><radialGradient id="radial-gradient" cx=".5" cy="0" r=".902" gradientUnits="objectBoundingBox"><stop offset="0" stop-color="#2b436f"/><stop offset="1"/></radialGradient><radialGradient id="radial-gradient-3" cx=".5" cy="-.543" r="1.112" gradientUnits="objectBoundingBox"><stop offset="0" stop-color="#385076"/><stop offset="1" stop-color="#131e32"/></radialGradient><radialGradient id="radial-gradient-4" cx=".5" cy="-.201" r="1.112" gradientUnits="objectBoundingBox"><stop offset="0" stop-color="#6ba0e2"/><stop offset=".305" stop-color="#54729a"/><stop offset=".526" stop-color="#385076"/><stop offset="1" stop-color="#131e32"/></radialGradient><radialGradient id="radial-gradient-5" cx=".5" cy=".419" r=".913" gradientUnits="objectBoundingBox"><stop offset="0" stop-color="#fff"/><stop offset="1" stop-color="#c42e6c"/></radialGradient><radialGradient id="radial-gradient-6" cx=".5" cy=".5" r=".5" gradientUnits="objectBoundingBox"><stop offset="0" stop-color="#c42e6c"/><stop offset="1" stop-color="#621736" stop-opacity="0"/></radialGradient><linearGradient id="linear-gradient" x1=".5" x2=".5" y1=".615" y2="1" gradientUnits="objectBoundingBox"><stop offset="0" stop-color="#04060a"/><stop offset="1" stop-color="#111b30"/></linearGradient><linearGradient id="linear-gradient-4" x1=".5" x2=".5" y1="1.642" gradientUnits="objectBoundingBox"><stop offset="0" stop-color="#5b79a2"/><stop offset="1" stop-color="#182439"/></linearGradient><linearGradient id="linear-gradient-6" x1=".809" x2="0" y2=".896" gradientUnits="objectBoundingBox"><stop offset="0" stop-color="#fb3b78"/><stop offset="1" stop-color="#efc7d8"/></linearGradient><linearGradient id="linear-gradient-7" x1=".745" x2="-2.075" y1=".896" y2="-.816" gradientUnits="objectBoundingBox"><stop offset="0" stop-color="#dd1e5b"/><stop offset="1" stop-color="#efc7d8"/></linearGradient><linearGradient id="linear-gradient-9" x1=".224" x2=".825" y1=".053" y2=".955" gradientUnits="objectBoundingBox"><stop offset="0" stop-color="#ff5f94"/><stop offset="1" stop-color="#ec454f"/></linearGradient><clipPath id="clip-path"><circle id="Mask_Copy_44" cx="60" cy="60" r="60" class="cls-1" data-name="Mask Copy 44"/></clipPath><clipPath id="clip-path-3"><circle id="Mask_Copy_45" cx="60" cy="60" r="60" fill="none" stroke="#707070" stroke-miterlimit="10" stroke-width="2" data-name="Mask Copy 45"/></clipPath><style>.cls-1{fill:url(#linear-gradient)}.cls-6,.cls-7{fill:none;stroke-miterlimit:10}.cls-6{stroke:#2a364d;stroke-width:.5px}.cls-7{stroke:#18263c;stroke-width:2.5px}.cls-8{fill:#21324e}.cls-9{fill:url(#linear-gradient-4)}.cls-12,.cls-20{isolation:isolate}.cls-12{fill:#fff;opacity:.2;mix-blend-mode:soft-light}.cls-20{mix-blend-mode:lighten;fill:url(#radial-gradient-6)}.cls-22{fill:rgba(255,255,255,.2)}.cls-23{fill:url(#linear-gradient-7)}</style></defs><g id="frameworks-blade-components_" data-name="frameworks-blade-components" transform="translate(-507 -522)"><g id="Color_Crown_Shadow" data-name="Color Crown + Shadow" transform="translate(507 522)"><g id="laravel-practical-blade"><g id="Group_19" data-name="Group 19"><circle id="Mask_Copy_44-2" cx="60" cy="60" r="60" class="cls-1" data-name="Mask Copy 44"/><circle id="Mask_Copy_50-2" cx="60" cy="60" r="60" fill="url(#radial-gradient)" data-name="Mask Copy 50"/><g id="Group_19-3" clip-path="url(#clip-path)" data-name="Group 19"><path id="Combined_Shape" d="M18.344 77.351A5.479 5.479 0 0 1 17 73.749v-28.5H6a6 6 0 1 1 0-12h32a6 6 0 1 1 0 12H28v17.722l39.082-23.459L28 16.055v5.694a5.5 5.5 0 0 1-11 0V5.9a6.392 6.392 0 0 1 .064-1.227l.052-.053a5.5 5.5 0 0 1 9.309-2.72 9.938 9.938 0 0 1 2.905 1.167L81.282 34.25a5.213 5.213 0 0 1 1.461 1.339 4.472 4.472 0 0 1 .737.973 5.609 5.609 0 0 1 .639 2.95 5.607 5.607 0 0 1-.639 2.95 4.471 4.471 0 0 1-.737.973 5.211 5.211 0 0 1-1.462 1.34l-55.142 33.1a5.5 5.5 0 0 1-7.4-.112 10 10 0 0 0 .7 1.561zm-.7-74.408a5.148 5.148 0 0 0-.575 1.731 9.967 9.967 0 0 0-1.549 2.093z" class="cls-1" data-name="Combined Shape" transform="rotate(-90 55.376 34.624)"/><g id="Group_187_Copy" data-name="Group 187 Copy" opacity=".663" transform="translate(39.963 70.505)"><path id="Path_127" d="M0 2.013h1.707V0h2.781" class="cls-6" data-name="Path 127" transform="translate(13.671 23.008)"/><path id="Path_130" d="M4.845 0h-1.69v2.723H0" class="cls-6" data-name="Path 130" transform="translate(21.052 22.298)"/><path id="Path_131" d="M2.547 4.905V2.569H0V0" class="cls-6" data-name="Path 131" transform="translate(24.874 12.731)"/><path id="Path_132" d="M3 7.911h1.285v-3.96H0V0" class="cls-6" data-name="Path 132" transform="translate(10.674 11.784)"/><path id="Path_133" d="M3.247 0H1.366v3.559H0" class="cls-6" data-name="Path 133" transform="translate(13.671 31.776)"/><path id="Path_129" d="M1.477 0H2.97v4.241H0V6.9" class="cls-6" data-name="Path 129" transform="translate(21.576 31.776)"/><path id="Path_134" d="M0 6.035V3.626h3.1V0" class="cls-6" data-name="Path 134" transform="translate(12.816 2.441)"/><path id="Path_135" d="M0 8.476V6.953h3.4V0H1.774" class="cls-6" data-name="Path 135" transform="translate(24.037)"/><path id="Path_136" d="M4.037 1.793H2.525V0H0" class="cls-6" data-name="Path 136" transform="translate(0 7.469)"/><path id="Path_137" d="M0 0h1.8v2.522h2.966" class="cls-6" data-name="Path 137" transform="translate(34.964 9.262)"/></g><g id="Group_186_Copy_6" data-name="Group 186 Copy 6" transform="rotate(-153 60.102 25.256)"><path id="Path_52_Copy_3" d="M4.782 0C6.065 11.244-2.35 10.363.927 17.827s-4.892 7.279 1.788 19.843" class="cls-7" data-name="Path 52 Copy 3" transform="translate(1.587 6.355)"/><g id="Group_2" data-name="Group 2" transform="translate(2)"><rect id="Rectangle_Copy_14" width="4.992" height="5.242" class="cls-8" data-name="Rectangle Copy 14" rx="1.747" transform="translate(1.872 1.747)"/><rect id="Rectangle" width="8.736" height="3.494" class="cls-9" rx="1.747"/></g></g><g id="Group_186_Copy_7" data-name="Group 186 Copy 7" transform="rotate(149 -4.185 41.635)"><path id="Path_52_Copy_3-2" d="M-10.849 0c-2.572 10.106.658 13.862 5.466 12.3s7.468 5.747 3.355 17.8" class="cls-7" data-name="Path 52 Copy 3" transform="translate(-.52 6.25)"/><g id="Group_2-2" data-name="Group 2" transform="translate(-7)"><rect id="Rectangle_Copy_14-2" width="4.992" height="5.242" class="cls-8" data-name="Rectangle Copy 14" rx="1.747" transform="translate(-6.864 1.747)"/><rect id="Rectangle-2" width="8.736" height="3.494" class="cls-9" data-name="Rectangle" rx="1.747" transform="translate(-8.736)"/></g></g><path id="Combined_Shape_Copy_24" fill="url(#radial-gradient-3)" d="M104 51H0V30A29.975 29.975 0 0 1 30 0h10.65v2.911a3 3 0 0 1-3 3H34a3 3 0 0 0-3 3v3.345a3.009 3.009 0 0 0 1.971 2.818l10.178 3.718a3.009 3.009 0 0 1 1.971 2.818V37a3 3 0 0 0 3 3h6.762a3 3 0 0 0 3-3V21.61a3.009 3.009 0 0 1 1.971-2.818l10.177-3.718A3.009 3.009 0 0 0 72 12.256V8.911a3 3 0 0 0-3-3h-3.65a3 3 0 0 1-3-3V0H74a29.975 29.975 0 0 1 30 30v21z" data-name="Combined Shape Copy 24" opacity=".723" transform="translate(9 67)"/><path id="Combined_Shape_Copy_26" fill="url(#radial-gradient-4)" d="M104 51H0V30A29.975 29.975 0 0 1 30 0h10.65v2.911a3 3 0 0 1-3 3H34a3 3 0 0 0-3 3v3.345a3.009 3.009 0 0 0 1.971 2.818l10.178 3.718a3.009 3.009 0 0 1 1.971 2.818V37a3 3 0 0 0 3 3h6.762a3 3 0 0 0 3-3V21.61a3.009 3.009 0 0 1 1.971-2.818l10.177-3.718A3.009 3.009 0 0 0 72 12.256V8.911a3 3 0 0 0-3-3h-3.65a3 3 0 0 1-3-3V0H74a29.975 29.975 0 0 1 30 30v21z" data-name="Combined Shape Copy 26" transform="translate(9 69)"/><path id="Combined_Shape-2" d="M10.354 41.915A21.7 21.7 0 0 1 2.809 35.3 16.254 16.254 0 0 1 0 26a20.955 20.955 0 0 1 2.633-10.12 26.664 26.664 0 0 1 7.179-8.265A35.172 35.172 0 0 1 20.46 2.043 41.731 41.731 0 0 1 33.5 0c2.369 0 4.715.115 6.971.341A54.12 54.12 0 0 0 26.7 2.816a45.078 45.078 0 0 0-11.662 5.559C7.879 13.238 3.937 19.5 3.937 26c0 5.148 2.279 10.8 6.418 15.913z" class="cls-12" data-name="Combined Shape" transform="translate(9 69)"/><path id="Combined_Shape_Copy_4" d="M-10.2 41.826a21.546 21.546 0 0 0 7.433-6.59A16.257 16.257 0 0 0 0 26a20.955 20.955 0 0 0-2.633-10.12 26.664 26.664 0 0 0-7.179-8.265A35.172 35.172 0 0 0-20.46 2.043 41.731 41.731 0 0 0-33.5 0a70.25 70.25 0 0 0-6.813.325 52.775 52.775 0 0 1 13.692 2.418 44.409 44.409 0 0 1 11.614 5.551C-7.868 13.168-3.937 19.456-3.937 26c0 5.115-2.224 10.735-6.261 15.825z" class="cls-12" data-name="Combined Shape Copy 4" transform="translate(112.894 69)"/></g><path id="Combined_Shape_Copy_25" fill="url(#radial-gradient-5)" d="M13.809 89.4a3 3 0 1 1 2.12.877 3 3 0 0 1-2.12-.877zm.717-6.81L13.481 70.4l1.8.45a1.481 1.481 0 0 0 .726 0l1.8-.45-1.045 12.19a6.067 6.067 0 0 0-2.236.002zM0 65.553v-1.571h30.927v1.571L15.464 69.42zm16.255-5.8v-6.282l3.2-1.843 2.318-1.334v6.286l-5.517 3.176zm-1.1 0-2.317-1.334-3.2-1.842v-6.283l2.318 1.334 3.2 1.843v6.286zm.684-7.6-4.81-2.51L21.86 42.5v6.07l-6.025 3.586zm-6.2-3.271v-4.633L21.86 36.3v4.4L9.635 48.889zm0-6.387V28.033L21.7 35.058 9.635 42.5zm12.138-8.815L9.634 26.7V5.293l2.318 1.332 3.2 1.844v14.8a.218.218 0 0 0 .005.041v.04a.369.369 0 0 0 .009.062.23.23 0 0 0 .018.043l.008.019.005.014a.512.512 0 0 0 .024.057.294.294 0 0 0 .025.033l.016.02.014.02a.336.336 0 0 0 .032.041.285.285 0 0 0 .032.025l.02.014.023.018a.258.258 0 0 0 .036.028h.005l6.341 3.589v6.349zm.087-7.493-5.464-3.02 5.46-3.027v6.053zm-5.6-3.879V8.469l3.2-1.843 2.318-1.334v13.847l-3.2 1.842-2.317 1.334zM15.7 7.513l-5.513-3.175L15.7 0l5.516 4.337L15.7 7.513z" data-name="Combined Shape Copy 25" transform="translate(45 15)"/></g><g id="Group_20" data-name="Group 20" style="isolation:isolate;mix-blend-mode:soft-light" transform="translate(54 15)"><path id="Path_123" fill="#fff" d="M6.884 0 0 7.943 6.884 19 14 7.943z" data-name="Path 123" opacity=".508"/><path id="Path_124" fill="#fff" d="m0 0 2 78.463 4.457 4.783L7 11.089z" data-name="Path 124" transform="translate(0 8)"/><path id="Path_124_Copy" fill="#4d4d4d" d="m0 0-2 78.463-4.457 4.783L-7 11.089z" data-name="Path 124 Copy" transform="translate(14 8)"/></g><g id="Group_176" data-name="Group 176" transform="rotate(-90.97 37.453 26.114)"><path id="Path_121" fill="none" stroke="#f44881" stroke-linejoin="round" stroke-miterlimit="10" stroke-width="2" d="M59.298 30.337 29.514 3.911l-19.508 14.47 1.4 29.119" data-name="Path 121"/><g id="Group_168" data-name="Group 168" transform="rotate(-158 13.787 27.76)"><g id="Group_32_Copy_17" data-name="Group 32 Copy 17"><circle id="Oval_Copy_65" cx="8" cy="8" r="8" class="cls-20" data-name="Oval Copy 65" transform="translate(.542 .542)"/><circle id="Oval_Copy_71" cx="4" cy="4" r="4" class="cls-20" data-name="Oval Copy 71" transform="translate(4.542 4.542)"/><circle id="Oval_Copy_63" cx="2.542" cy="2.542" r="2.542" fill="url(#linear-gradient-6)" data-name="Oval Copy 63" transform="translate(6 6)"/><path id="Combined_Shape-3" d="M.808 3.657A2.034 2.034 0 0 1 2.034 0a2.019 2.019 0 0 1 1.627.813 2.016 2.016 0 0 0-1.22-.406A2.034 2.034 0 0 0 .809 3.655z" class="cls-22" data-name="Combined Shape" transform="translate(6 6)"/></g></g><g id="Group_32_Copy_16" data-name="Group 32 Copy 16" transform="rotate(-158 8.32 10.453)"><circle id="Oval" cx="3.445" cy="3.445" r="3.445" class="cls-23"/><path id="Combined_Shape-4" d="M1.307 5.9A3.281 3.281 0 0 1 3.281 0a3.257 3.257 0 0 1 2.626 1.313A3.251 3.251 0 0 0 3.938.656 3.281 3.281 0 0 0 1.308 5.9z" class="cls-22" data-name="Combined Shape"/></g><g id="Group_32_Copy_20" data-name="Group 32 Copy 20" transform="rotate(-158 15.792 .503)"><circle id="Oval-2" cx="2.193" cy="2.193" r="2.193" class="cls-23" data-name="Oval"/><path id="Combined_Shape-5" d="M.83 3.754A2.088 2.088 0 0 1 2.088 0a2.072 2.072 0 0 1 1.67.835A2.069 2.069 0 0 0 2.506.418 2.088 2.088 0 0 0 .831 3.753z" class="cls-22" data-name="Combined Shape"/></g></g></g><g id="Color_Crown" data-name="Color Crown"><path id="Ring" fill="url(#linear-gradient-9)" d="M780 826a59.72 59.72 0 0 1-33.547-10.247 60.176 60.176 0 0 1-21.739-26.4 59.921 59.921 0 0 1 5.532-56.9 60.176 60.176 0 0 1 26.4-21.738 59.92 59.92 0 0 1 56.9 5.532 60.174 60.174 0 0 1 21.738 26.4 59.923 59.923 0 0 1-5.532 56.9 60.174 60.174 0 0 1-26.4 21.739A59.623 59.623 0 0 1 780 826zm0-118a57.729 57.729 0 0 0-32.429 9.905 58.167 58.167 0 0 0-21.014 25.518 57.924 57.924 0 0 0 5.348 55 58.169 58.169 0 0 0 25.518 21.014 57.923 57.923 0 0 0 55-5.348 58.17 58.17 0 0 0 21.014-25.518 57.924 57.924 0 0 0-5.348-55 58.171 58.171 0 0 0-25.518-21.013A57.638 57.638 0 0 0 780 708z" transform="translate(-720 -706)"/></g></g></g></svg>